<svg width="512" height="512" viewBox="0 0 512 512" fill="none" xmlns="http://www.w3.org/2000/svg" role="img" aria-label="Pink disco ball with angled mirror lines">
  <defs>
    <radialGradient id="ballGrad" cx="0" cy="0" r="1" gradientUnits="userSpaceOnUse" gradientTransform="translate(188 136) rotate(48) scale(392)">
      <stop stop-color="#FFE9F7"/>
      <stop offset="0.38" stop-color="#FFC8EA"/>
      <stop offset="0.72" stop-color="#FF99DA"/>
      <stop offset="1" stop-color="#C851A7"/>
    </radialGradient>

    <linearGradient id="gridA" x1="66" y1="86" x2="446" y2="470" gradientUnits="userSpaceOnUse">
      <stop stop-color="#FFF4FC"/>
      <stop offset="1" stop-color="#FFD3F0"/>
    </linearGradient>

    <linearGradient id="gridB" x1="78" y1="96" x2="438" y2="468" gradientUnits="userSpaceOnUse">
      <stop stop-color="#FFE6F7"/>
      <stop offset="1" stop-color="#FFBDE7"/>
    </linearGradient>

    <filter id="ballGlow" x="0" y="0" width="512" height="512" filterUnits="userSpaceOnUse" color-interpolation-filters="sRGB">
      <feDropShadow dx="0" dy="0" stdDeviation="6" flood-color="#FFD8F1" flood-opacity="0.85"/>
      <feDropShadow dx="0" dy="0" stdDeviation="16" flood-color="#FF96DB" flood-opacity="0.65"/>
    </filter>

    <filter id="pinkStarGlow" x="0" y="0" width="512" height="512" filterUnits="userSpaceOnUse" color-interpolation-filters="sRGB">
      <feDropShadow dx="0" dy="0" stdDeviation="4" flood-color="#FF6AC9" flood-opacity="1"/>
      <feDropShadow dx="0" dy="0" stdDeviation="10" flood-color="#FFC2EA" flood-opacity="0.95"/>
      <feDropShadow dx="0" dy="0" stdDeviation="20" flood-color="#FF9BDD" flood-opacity="0.8"/>
    </filter>

    <clipPath id="ballClip">
      <circle cx="256" cy="278" r="186"/>
    </clipPath>
  </defs>

  <rect x="16" y="16" width="480" height="480" rx="138" fill="#220017"/>

  <g filter="url(#ballGlow)">
    <circle cx="256" cy="278" r="186" fill="url(#ballGrad)"/>
    <circle cx="256" cy="278" r="186" stroke="#FFF0FA" stroke-width="6"/>
  </g>

  <g clip-path="url(#ballClip)">
    <!-- angled mirror lines -->
    <g opacity="0.92" stroke="url(#gridA)" stroke-width="3">
      <path d="M20 420L380 60"/>
      <path d="M44 450L410 84"/>
      <path d="M68 480L440 108"/>
      <path d="M96 500L468 128"/>
      <path d="M0 360L332 28"/>
      <path d="M0 300L272 28"/>

      <path d="M120 40L492 412"/>
      <path d="M92 66L464 438"/>
      <path d="M64 92L436 464"/>
      <path d="M36 118L408 490"/>
      <path d="M8 144L380 516"/>
      <path d="M-72 472L392 8"/>
      <path d="M-48 506L424 34"/>
      <path d="M-12 548L460 76"/>
      <path d="M104 0L568 464"/>
      <path d="M72 20L536 484"/>
      <path d="M40 52L504 516"/>
    </g>

    <g opacity="0.6" stroke="url(#gridB)" stroke-width="2.4">
      <path d="M4 404L364 44"/>
      <path d="M30 438L394 74"/>
      <path d="M58 470L424 104"/>
      <path d="M86 498L452 132"/>

      <path d="M146 26L506 386"/>
      <path d="M116 52L478 414"/>
      <path d="M86 78L448 440"/>
      <path d="M56 104L418 466"/>
      <path d="M-64 520L412 44"/>
      <path d="M10 548L478 80"/>
      <path d="M28 8L500 480"/>
      <path d="M-8 40L464 512"/>
    </g>
  </g>

  <ellipse cx="194" cy="186" rx="44" ry="24" fill="#FFFFFF" fill-opacity="0.42"/>
  <ellipse cx="226" cy="152" rx="18" ry="10" fill="#FFFFFF" fill-opacity="0.36"/>

  <g filter="url(#pinkStarGlow)">
    <path d="M56 168L65 192L89 201L65 210L56 234L47 210L23 201L47 192L56 168Z" fill="#FFD9F1"/>
    <path d="M452 146L461 170L485 179L461 188L452 212L443 188L419 179L443 170L452 146Z" fill="#FFD9F1"/>
    <path d="M116 70L122 86L138 92L122 98L116 114L110 98L94 92L110 86L116 70Z" fill="#FFE6F6"/>
  </g>

  <circle cx="458" cy="250" r="6" fill="#FFBFE7"/>
  <circle cx="46" cy="282" r="5" fill="#FFBFE7"/>
</svg>
